<svg width="165" height="65" viewBox="0 0 165 65" fill="none" xmlns="http://www.w3.org/2000/svg">
<rect width="165" height="65" fill="#171718"/>
<rect x="19" y="20" width="51" height="26" rx="13" fill="#272727"/>
<circle cx="32" cy="33" r="12" fill="white"/>
<path d="M55.0003 25.2773C55.0979 25.396 55.1577 25.5411 55.1719 25.6941C55.1862 25.847 55.1543 26.0007 55.0803 26.1354C54.5021 27.1969 54.2002 28.3868 54.2022 29.5955C54.2022 33.6167 57.4804 36.8728 61.5205 36.8728C62.0475 36.8728 62.5606 36.8178 63.0536 36.7128C63.2047 36.6801 63.3621 36.6926 63.5062 36.7488C63.6503 36.805 63.7746 36.9024 63.8636 37.0288C63.9576 37.1603 64.0055 37.3191 63.9999 37.4806C63.9943 37.6421 63.9355 37.7972 63.8326 37.9219C63.0483 38.8853 62.0588 39.6616 60.9363 40.1941C59.8139 40.7267 58.5867 41.002 57.3443 41C52.7342 41 49 37.2858 49 32.7096C49 29.2655 51.1141 26.3114 54.1242 25.0593C54.2742 24.996 54.4406 24.9829 54.5986 25.0223C54.7566 25.0616 54.8975 25.1511 55.0003 25.2773Z" fill="black"/>
<path d="M59.7939 28.1475C59.8083 28.1042 59.8359 28.0665 59.8729 28.0398C59.9099 28.013 59.9543 27.9987 59.9999 27.9987C60.0456 27.9987 60.09 28.013 60.127 28.0398C60.164 28.0665 60.1916 28.1042 60.2059 28.1475L60.593 29.3095C60.766 29.8275 61.172 30.2335 61.69 30.4066L62.8521 30.7936C62.8954 30.8079 62.933 30.8355 62.9598 30.8725C62.9865 30.9095 63.0008 30.954 63.0008 30.9996C63.0008 31.0452 62.9865 31.0897 62.9598 31.1266C62.933 31.1636 62.8954 31.1912 62.8521 31.2056L61.69 31.5926C61.4345 31.6777 61.2024 31.8212 61.012 32.0116C60.8215 32.202 60.6781 32.4342 60.593 32.6896L60.2059 33.8517C60.1916 33.895 60.164 33.9327 60.127 33.9594C60.09 33.9861 60.0456 34.0005 59.9999 34.0005C59.9543 34.0005 59.9099 33.9861 59.8729 33.9594C59.8359 33.9327 59.8083 33.895 59.7939 33.8517L59.4069 32.6896C59.3218 32.4342 59.1783 32.202 58.9879 32.0116C58.7975 31.8212 58.5654 31.6777 58.3099 31.5926L57.1478 31.2056C57.1045 31.1912 57.0668 31.1636 57.0401 31.1266C57.0134 31.0897 56.999 31.0452 56.999 30.9996C56.999 30.954 57.0134 30.9095 57.0401 30.8725C57.0668 30.8355 57.1045 30.8079 57.1478 30.7936L58.3099 30.4066C58.5654 30.3214 58.7975 30.178 58.9879 29.9876C59.1783 29.7971 59.3218 29.565 59.4069 29.3095L59.7939 28.1475ZM62.8631 25.0983C62.8729 25.0699 62.8914 25.0452 62.916 25.0277C62.9405 25.0102 62.9699 25.0008 63.0001 25.0008C63.0302 25.0008 63.0596 25.0102 63.0841 25.0277C63.1087 25.0452 63.1272 25.0699 63.1371 25.0983L63.3951 25.8724C63.5101 26.2184 63.7811 26.4894 64.1271 26.6044L64.9011 26.8624C64.9296 26.8723 64.9543 26.8908 64.9718 26.9153C64.9893 26.9399 64.9986 26.9693 64.9986 26.9994C64.9986 27.0295 64.9893 27.0589 64.9718 27.0835C64.9543 27.108 64.9296 27.1265 64.9011 27.1364L64.1271 27.3944C63.9566 27.4512 63.8016 27.5468 63.6746 27.6739C63.5475 27.801 63.4518 27.9559 63.3951 28.1265L63.1371 28.9005C63.1272 28.929 63.1087 28.9537 63.0841 28.9711C63.0596 28.9886 63.0302 28.998 63.0001 28.998C62.9699 28.998 62.9405 28.9886 62.916 28.9711C62.8914 28.9537 62.8729 28.929 62.8631 28.9005L62.605 28.1265C62.5483 27.9559 62.4526 27.801 62.3256 27.6739C62.1985 27.5468 62.0435 27.4512 61.873 27.3944L61.099 27.1364C61.0705 27.1265 61.0458 27.108 61.0283 27.0835C61.0109 27.0589 61.0015 27.0295 61.0015 26.9994C61.0015 26.9693 61.0109 26.9399 61.0283 26.9153C61.0458 26.8908 61.0705 26.8723 61.099 26.8624L61.873 26.6044C62.219 26.4894 62.49 26.2184 62.605 25.8724L62.8631 25.0993V25.0983Z" fill="black"/>
<path d="M32 36C31.2044 36 30.4413 35.6839 29.8787 35.1213C29.3161 34.5587 29 33.7956 29 33C29 32.2044 29.3161 31.4413 29.8787 30.8787C30.4413 30.3161 31.2044 30 32 30C32.7956 30 33.5587 30.3161 34.1213 30.8787C34.6839 31.4413 35 32.2044 35 33C35 33.7956 34.6839 34.5587 34.1213 35.1213C33.5587 35.6839 32.7956 36 32 36ZM32 37C33.0609 37 34.0783 36.5786 34.8284 35.8284C35.5786 35.0783 36 34.0609 36 33C36 31.9391 35.5786 30.9217 34.8284 30.1716C34.0783 29.4214 33.0609 29 32 29C30.9391 29 29.9217 29.4214 29.1716 30.1716C28.4214 30.9217 28 31.9391 28 33C28 34.0609 28.4214 35.0783 29.1716 35.8284C29.9217 36.5786 30.9391 37 32 37ZM32 25C32.1326 25 32.2598 25.0527 32.3536 25.1464C32.4473 25.2402 32.5 25.3674 32.5 25.5V27.5C32.5 27.6326 32.4473 27.7598 32.3536 27.8536C32.2598 27.9473 32.1326 28 32 28C31.8674 28 31.7402 27.9473 31.6464 27.8536C31.5527 27.7598 31.5 27.6326 31.5 27.5V25.5C31.5 25.3674 31.5527 25.2402 31.6464 25.1464C31.7402 25.0527 31.8674 25 32 25V25ZM32 38C32.1326 38 32.2598 38.0527 32.3536 38.1464C32.4473 38.2402 32.5 38.3674 32.5 38.5V40.5C32.5 40.6326 32.4473 40.7598 32.3536 40.8536C32.2598 40.9473 32.1326 41 32 41C31.8674 41 31.7402 40.9473 31.6464 40.8536C31.5527 40.7598 31.5 40.6326 31.5 40.5V38.5C31.5 38.3674 31.5527 38.2402 31.6464 38.1464C31.7402 38.0527 31.8674 38 32 38ZM40 33C40 33.1326 39.9473 33.2598 39.8536 33.3536C39.7598 33.4473 39.6326 33.5 39.5 33.5H37.5C37.3674 33.5 37.2402 33.4473 37.1464 33.3536C37.0527 33.2598 37 33.1326 37 33C37 32.8674 37.0527 32.7402 37.1464 32.6464C37.2402 32.5527 37.3674 32.5 37.5 32.5H39.5C39.6326 32.5 39.7598 32.5527 39.8536 32.6464C39.9473 32.7402 40 32.8674 40 33ZM27 33C27 33.1326 26.9473 33.2598 26.8536 33.3536C26.7598 33.4473 26.6326 33.5 26.5 33.5H24.5C24.3674 33.5 24.2402 33.4473 24.1464 33.3536C24.0527 33.2598 24 33.1326 24 33C24 32.8674 24.0527 32.7402 24.1464 32.6464C24.2402 32.5527 24.3674 32.5 24.5 32.5H26.5C26.6326 32.5 26.7598 32.5527 26.8536 32.6464C26.9473 32.7402 27 32.8674 27 33ZM37.657 27.343C37.7507 27.4368 37.8034 27.5639 37.8034 27.6965C37.8034 27.8291 37.7507 27.9562 37.657 28.05L36.243 29.465C36.1965 29.5114 36.1413 29.5482 36.0806 29.5733C36.0199 29.5984 35.9548 29.6113 35.8891 29.6113C35.7565 29.6112 35.6293 29.5584 35.5355 29.4645C35.4891 29.418 35.4523 29.3628 35.4272 29.3021C35.4021 29.2414 35.3892 29.1763 35.3892 29.1106C35.3893 28.978 35.4421 28.8508 35.536 28.757L36.95 27.343C37.0438 27.2493 37.1709 27.1966 37.3035 27.1966C37.4361 27.1966 37.5632 27.2493 37.657 27.343ZM28.464 36.536C28.5577 36.6298 28.6104 36.7569 28.6104 36.8895C28.6104 37.0221 28.5577 37.1492 28.464 37.243L27.05 38.657C26.9557 38.7481 26.8294 38.7985 26.6983 38.7973C26.5672 38.7962 26.4418 38.7436 26.3491 38.6509C26.2564 38.5582 26.2038 38.4328 26.2027 38.3017C26.2015 38.1706 26.2519 38.0443 26.343 37.95L27.757 36.536C27.8508 36.4423 27.9779 36.3896 28.1105 36.3896C28.2431 36.3896 28.3702 36.4423 28.464 36.536ZM37.657 38.657C37.5632 38.7507 37.4361 38.8034 37.3035 38.8034C37.1709 38.8034 37.0438 38.7507 36.95 38.657L35.536 37.243C35.4449 37.1487 35.3945 37.0224 35.3957 36.8913C35.3968 36.7602 35.4494 36.6348 35.5421 36.5421C35.6348 36.4494 35.7602 36.3968 35.8913 36.3957C36.0224 36.3945 36.1487 36.4449 36.243 36.536L37.657 37.95C37.7507 38.0438 37.8034 38.1709 37.8034 38.3035C37.8034 38.4361 37.7507 38.5632 37.657 38.657ZM28.464 29.465C28.3702 29.5587 28.2431 29.6114 28.1105 29.6114C27.9779 29.6114 27.8508 29.5587 27.757 29.465L26.343 28.05C26.2952 28.0039 26.2572 27.9487 26.2309 27.8877C26.2047 27.8267 26.191 27.7611 26.1904 27.6947C26.1898 27.6283 26.2024 27.5625 26.2276 27.501C26.2527 27.4396 26.2899 27.3837 26.3368 27.3368C26.3837 27.2899 26.4396 27.2527 26.501 27.2276C26.5625 27.2024 26.6283 27.1898 26.6947 27.1904C26.7611 27.191 26.8267 27.2047 26.8877 27.2309C26.9487 27.2572 27.0039 27.2952 27.05 27.343L28.464 28.757C28.5106 28.8034 28.5475 28.8586 28.5727 28.9194C28.5979 28.9801 28.6109 29.0452 28.6109 29.111C28.6109 29.1768 28.5979 29.2419 28.5727 29.3026C28.5475 29.3634 28.5106 29.4186 28.464 29.465Z" fill="black"/>
<rect x="83" y="20" width="51" height="26" rx="13" fill="#272727"/>
<circle cx="121" cy="33" r="12" fill="white"/>
<path d="M119 25.2773C119.098 25.396 119.158 25.5411 119.172 25.6941C119.186 25.847 119.154 26.0007 119.08 26.1354C118.502 27.1969 118.2 28.3868 118.202 29.5955C118.202 33.6167 121.48 36.8728 125.521 36.8728C126.048 36.8728 126.561 36.8178 127.054 36.7128C127.205 36.6801 127.362 36.6926 127.506 36.7488C127.65 36.805 127.775 36.9024 127.864 37.0288C127.958 37.1603 128.006 37.3191 128 37.4806C127.994 37.6421 127.936 37.7972 127.833 37.9219C127.048 38.8853 126.059 39.6616 124.936 40.1941C123.814 40.7267 122.587 41.002 121.344 41C116.734 41 113 37.2858 113 32.7096C113 29.2655 115.114 26.3114 118.124 25.0593C118.274 24.996 118.441 24.9829 118.599 25.0223C118.757 25.0616 118.897 25.1511 119 25.2773Z" fill="black"/>
<path d="M123.794 28.1475C123.808 28.1042 123.836 28.0665 123.873 28.0398C123.91 28.013 123.954 27.9987 124 27.9987C124.046 27.9987 124.09 28.013 124.127 28.0398C124.164 28.0665 124.192 28.1042 124.206 28.1475L124.593 29.3095C124.766 29.8275 125.172 30.2335 125.69 30.4066L126.852 30.7936C126.895 30.8079 126.933 30.8355 126.96 30.8725C126.986 30.9095 127.001 30.954 127.001 30.9996C127.001 31.0452 126.986 31.0897 126.96 31.1266C126.933 31.1636 126.895 31.1912 126.852 31.2056L125.69 31.5926C125.435 31.6777 125.202 31.8212 125.012 32.0116C124.822 32.202 124.678 32.4342 124.593 32.6896L124.206 33.8517C124.192 33.895 124.164 33.9327 124.127 33.9594C124.09 33.9861 124.046 34.0005 124 34.0005C123.954 34.0005 123.91 33.9861 123.873 33.9594C123.836 33.9327 123.808 33.895 123.794 33.8517L123.407 32.6896C123.322 32.4342 123.178 32.202 122.988 32.0116C122.798 31.8212 122.565 31.6777 122.31 31.5926L121.148 31.2056C121.105 31.1912 121.067 31.1636 121.04 31.1266C121.013 31.0897 120.999 31.0452 120.999 30.9996C120.999 30.954 121.013 30.9095 121.04 30.8725C121.067 30.8355 121.105 30.8079 121.148 30.7936L122.31 30.4066C122.565 30.3214 122.798 30.178 122.988 29.9876C123.178 29.7971 123.322 29.565 123.407 29.3095L123.794 28.1475ZM126.863 25.0983C126.873 25.0699 126.891 25.0452 126.916 25.0277C126.941 25.0102 126.97 25.0008 127 25.0008C127.03 25.0008 127.06 25.0102 127.084 25.0277C127.109 25.0452 127.127 25.0699 127.137 25.0983L127.395 25.8724C127.51 26.2184 127.781 26.4894 128.127 26.6044L128.901 26.8624C128.93 26.8723 128.954 26.8908 128.972 26.9153C128.989 26.9399 128.999 26.9693 128.999 26.9994C128.999 27.0295 128.989 27.0589 128.972 27.0835C128.954 27.108 128.93 27.1265 128.901 27.1364L128.127 27.3944C127.957 27.4512 127.802 27.5468 127.675 27.6739C127.548 27.801 127.452 27.9559 127.395 28.1265L127.137 28.9005C127.127 28.929 127.109 28.9537 127.084 28.9711C127.06 28.9886 127.03 28.998 127 28.998C126.97 28.998 126.941 28.9886 126.916 28.9711C126.891 28.9537 126.873 28.929 126.863 28.9005L126.605 28.1265C126.548 27.9559 126.453 27.801 126.326 27.6739C126.198 27.5468 126.044 27.4512 125.873 27.3944L125.099 27.1364C125.071 27.1265 125.046 27.108 125.028 27.0835C125.011 27.0589 125.001 27.0295 125.001 26.9994C125.001 26.9693 125.011 26.9399 125.028 26.9153C125.046 26.8908 125.071 26.8723 125.099 26.8624L125.873 26.6044C126.219 26.4894 126.49 26.2184 126.605 25.8724L126.863 25.0993V25.0983Z" fill="black"/>
<path d="M96 36C95.2044 36 94.4413 35.6839 93.8787 35.1213C93.3161 34.5587 93 33.7956 93 33C93 32.2044 93.3161 31.4413 93.8787 30.8787C94.4413 30.3161 95.2044 30 96 30C96.7956 30 97.5587 30.3161 98.1213 30.8787C98.6839 31.4413 99 32.2044 99 33C99 33.7956 98.6839 34.5587 98.1213 35.1213C97.5587 35.6839 96.7956 36 96 36ZM96 37C97.0609 37 98.0783 36.5786 98.8284 35.8284C99.5786 35.0783 100 34.0609 100 33C100 31.9391 99.5786 30.9217 98.8284 30.1716C98.0783 29.4214 97.0609 29 96 29C94.9391 29 93.9217 29.4214 93.1716 30.1716C92.4214 30.9217 92 31.9391 92 33C92 34.0609 92.4214 35.0783 93.1716 35.8284C93.9217 36.5786 94.9391 37 96 37ZM96 25C96.1326 25 96.2598 25.0527 96.3536 25.1464C96.4473 25.2402 96.5 25.3674 96.5 25.5V27.5C96.5 27.6326 96.4473 27.7598 96.3536 27.8536C96.2598 27.9473 96.1326 28 96 28C95.8674 28 95.7402 27.9473 95.6464 27.8536C95.5527 27.7598 95.5 27.6326 95.5 27.5V25.5C95.5 25.3674 95.5527 25.2402 95.6464 25.1464C95.7402 25.0527 95.8674 25 96 25V25ZM96 38C96.1326 38 96.2598 38.0527 96.3536 38.1464C96.4473 38.2402 96.5 38.3674 96.5 38.5V40.5C96.5 40.6326 96.4473 40.7598 96.3536 40.8536C96.2598 40.9473 96.1326 41 96 41C95.8674 41 95.7402 40.9473 95.6464 40.8536C95.5527 40.7598 95.5 40.6326 95.5 40.5V38.5C95.5 38.3674 95.5527 38.2402 95.6464 38.1464C95.7402 38.0527 95.8674 38 96 38ZM104 33C104 33.1326 103.947 33.2598 103.854 33.3536C103.76 33.4473 103.633 33.5 103.5 33.5H101.5C101.367 33.5 101.24 33.4473 101.146 33.3536C101.053 33.2598 101 33.1326 101 33C101 32.8674 101.053 32.7402 101.146 32.6464C101.24 32.5527 101.367 32.5 101.5 32.5H103.5C103.633 32.5 103.76 32.5527 103.854 32.6464C103.947 32.7402 104 32.8674 104 33ZM91 33C91 33.1326 90.9473 33.2598 90.8536 33.3536C90.7598 33.4473 90.6326 33.5 90.5 33.5H88.5C88.3674 33.5 88.2402 33.4473 88.1464 33.3536C88.0527 33.2598 88 33.1326 88 33C88 32.8674 88.0527 32.7402 88.1464 32.6464C88.2402 32.5527 88.3674 32.5 88.5 32.5H90.5C90.6326 32.5 90.7598 32.5527 90.8536 32.6464C90.9473 32.7402 91 32.8674 91 33ZM101.657 27.343C101.751 27.4368 101.803 27.5639 101.803 27.6965C101.803 27.8291 101.751 27.9562 101.657 28.05L100.243 29.465C100.197 29.5114 100.141 29.5482 100.081 29.5733C100.02 29.5984 99.9548 29.6113 99.8891 29.6113C99.7565 29.6112 99.6293 29.5584 99.5355 29.4645C99.4891 29.418 99.4523 29.3628 99.4272 29.3021C99.4021 29.2414 99.3892 29.1763 99.3892 29.1106C99.3893 28.978 99.4421 28.8508 99.536 28.757L100.95 27.343C101.044 27.2493 101.171 27.1966 101.304 27.1966C101.436 27.1966 101.563 27.2493 101.657 27.343ZM92.464 36.536C92.5577 36.6298 92.6104 36.7569 92.6104 36.8895C92.6104 37.0221 92.5577 37.1492 92.464 37.243L91.05 38.657C90.9557 38.7481 90.8294 38.7985 90.6983 38.7973C90.5672 38.7962 90.4418 38.7436 90.3491 38.6509C90.2564 38.5582 90.2038 38.4328 90.2027 38.3017C90.2015 38.1706 90.2519 38.0443 90.343 37.95L91.757 36.536C91.8508 36.4423 91.9779 36.3896 92.1105 36.3896C92.2431 36.3896 92.3702 36.4423 92.464 36.536ZM101.657 38.657C101.563 38.7507 101.436 38.8034 101.304 38.8034C101.171 38.8034 101.044 38.7507 100.95 38.657L99.536 37.243C99.4449 37.1487 99.3945 37.0224 99.3957 36.8913C99.3968 36.7602 99.4494 36.6348 99.5421 36.5421C99.6348 36.4494 99.7602 36.3968 99.8913 36.3957C100.022 36.3945 100.149 36.4449 100.243 36.536L101.657 37.95C101.751 38.0438 101.803 38.1709 101.803 38.3035C101.803 38.4361 101.751 38.5632 101.657 38.657ZM92.464 29.465C92.3702 29.5587 92.2431 29.6114 92.1105 29.6114C91.9779 29.6114 91.8508 29.5587 91.757 29.465L90.343 28.05C90.2952 28.0039 90.2572 27.9487 90.2309 27.8877C90.2047 27.8267 90.191 27.7611 90.1904 27.6947C90.1898 27.6283 90.2024 27.5625 90.2276 27.501C90.2527 27.4396 90.2899 27.3837 90.3368 27.3368C90.3837 27.2899 90.4396 27.2527 90.501 27.2276C90.5625 27.2024 90.6283 27.1898 90.6947 27.1904C90.7611 27.191 90.8267 27.2047 90.8877 27.2309C90.9487 27.2572 91.0039 27.2952 91.05 27.343L92.464 28.757C92.5106 28.8034 92.5475 28.8586 92.5727 28.9194C92.5979 28.9801 92.6109 29.0452 92.6109 29.111C92.6109 29.1768 92.5979 29.2419 92.5727 29.3026C92.5475 29.3634 92.5106 29.4186 92.464 29.465Z" fill="black"/>
</svg>
